<?xml version="1.0" encoding="iso-8859-1"?>
<!-- Generator: Adobe Illustrator 19.0.0, SVG Export Plug-In . SVG Version: 6.00 Build 0)  -->
<svg version="1.1" id="Layer_1" xmlns="http://www.w3.org/2000/svg" xmlns:xlink="http://www.w3.org/1999/xlink" x="0px" y="0px"
	 viewBox="0 0 495 495" style="enable-background:new 0 0 495 495;" xml:space="preserve">
<g>
	<polygon style="fill:#AB2300;" points="247.5,0 247.5,40 455,40 455,455 247.5,455 247.5,495 495,495 495,0 	"/>
	<polygon style="fill:#CD2A00;" points="40,455 40,40 247.5,40 247.5,0 0,0 0,495 247.5,495 247.5,455 	"/>
	<path style="fill:#CD2A00;" d="M213.466,405l53.22-117.585h23.518V405h33.414V90h-59.173c-37.664,0-82.538,39.611-82.538,103.966
		c0,64.365,56.312,90.354,56.312,90.354L171.381,405H213.466z M234.103,244.154c-8.224-10.335-15.384-27.524-15.384-56.06
		c0-62.509,35.94-70.583,40.899-71.393c0.356-0.06,0.701-0.08,1.057-0.08h28.596v142.946h-22.249
		C254.306,259.567,242.024,254.102,234.103,244.154z"/>
</g>
<g>
</g>
<g>
</g>
<g>
</g>
<g>
</g>
<g>
</g>
<g>
</g>
<g>
</g>
<g>
</g>
<g>
</g>
<g>
</g>
<g>
</g>
<g>
</g>
<g>
</g>
<g>
</g>
<g>
</g>
</svg>
